<svg width="2298" height="274" viewBox="0 0 2298 274" fill="none" xmlns="http://www.w3.org/2000/svg">
<path d="M0.875 177V-1.00136e-05H27.875V177H0.875ZM36.875 177V-1.00136e-05H45.875V177H36.875ZM54.875 177V-1.00136e-05H63.875V177H54.875ZM72.875 177V-1.00136e-05H81.875V177H72.875ZM108.875 177V-1.00136e-05H135.875V177H108.875ZM63.575 237.9L57.875 243.9V272.7H49.775V203.1H59.075V204C58.675 204.4 58.375 204.9 58.175 205.5C57.975 205.9 57.875 206.8 57.875 208.2V235.2L86.975 202.8C88.775 203 90.675 203.1 92.675 203.1H95.675L69.275 233.1L97.475 272.7L87.575 273L63.575 237.9ZM145.016 177V-1.00136e-05H154.016V177H145.016ZM163.016 177V-1.00136e-05H172.016V177H163.016ZM181.016 177V-1.00136e-05H208.016V177H181.016ZM217.016 177V-1.00136e-05H226.016V177H217.016ZM253.016 177V-1.00136e-05H280.016V177H253.016ZM194.816 203.1H202.316L231.416 254.7V203.1H240.116V204C239.516 204.4 239.216 204.9 239.216 205.5C239.016 205.9 238.916 206.8 238.916 208.2V272.7H232.916L202.016 218.1V272.7H194.816V203.1ZM289.156 177V-1.00136e-05H298.156V177H289.156ZM307.156 177V-1.00136e-05H334.156V177H307.156ZM343.156 177V-1.00136e-05H352.156V177H343.156ZM379.156 177V-1.00136e-05H406.156V177H379.156ZM415.156 177V-1.00136e-05H424.156V177H415.156ZM342.256 266.1H356.056V209.7H343.156V203.1H377.656V209.7H363.856V266.1H378.256V272.7H342.256V266.1ZM433.297 177V-1.00136e-05H442.297V177H433.297ZM451.297 177V-1.00136e-05H460.297V177H451.297ZM469.297 177V-1.00136e-05H496.297V177H469.297ZM505.297 177V-1.00136e-05H532.297V177H505.297ZM559.297 177V-1.00136e-05H568.297V177H559.297ZM500.497 210H480.997V203.1H528.997V210H508.597V272.7H500.497V210ZM577.438 177V-1.00136e-05H586.438V177H577.438ZM595.438 177V-1.00136e-05H604.438V177H595.438ZM613.438 177V-1.00136e-05H640.438V177H613.438ZM649.438 177V-1.00136e-05H676.438V177H649.438ZM703.438 177V-1.00136e-05H712.438V177H703.438ZM644.638 210H625.138V203.1H673.138V210H652.738V272.7H644.638V210ZM721.578 177V-1.00136e-05H730.578V177H721.578ZM739.578 177V-1.00136e-05H766.578V177H739.578ZM775.578 177V-1.00136e-05H784.578V177H775.578ZM811.578 177V-1.00136e-05H838.578V177H811.578ZM847.578 177V-1.00136e-05H856.578V177H847.578ZM774.678 266.1H788.478V209.7H775.578V203.1H810.078V209.7H796.278V266.1H810.678V272.7H774.678V266.1ZM865.719 177V-1.00136e-05H874.719V177H865.719ZM883.719 177V-1.00136e-05H892.719V177H883.719ZM901.719 177V-1.00136e-05H928.719V177H901.719ZM937.719 177V-1.00136e-05H946.719V177H937.719ZM973.719 177V-1.00136e-05H1000.72V177H973.719ZM915.519 203.1H923.019L952.119 254.7V203.1H960.819V204C960.219 204.4 959.919 204.9 959.919 205.5C959.719 205.9 959.619 206.8 959.619 208.2V272.7H953.619L922.719 218.1V272.7H915.519V203.1ZM1009.86 177V-1.00136e-05H1018.86V177H1009.86ZM1027.86 177V-1.00136e-05H1036.86V177H1027.86ZM1045.86 177V-1.00136e-05H1054.86V177H1045.86ZM1081.86 177V-1.00136e-05H1108.86V177H1081.86ZM1117.86 177V-1.00136e-05H1144.86V177H1117.86ZM1084.86 273.9C1079.26 273.9 1074.46 272.4 1070.46 269.4C1066.46 266.6 1063.36 262.5 1061.16 257.1C1058.96 251.9 1057.86 245.8 1057.86 238.8C1057.86 229.6 1059.26 222.3 1062.06 216.9C1064.86 211.5 1068.26 207.7 1072.26 205.5C1076.26 203.5 1080.26 202.5 1084.26 202.5C1088.46 202.5 1092.46 203.6 1096.26 205.8C1100.26 207.8 1103.16 210.6 1104.96 214.2L1099.56 218.4L1098.66 219.3L1098.36 218.7C1098.36 218.1 1098.26 217.5 1098.06 216.9C1097.66 216.5 1097.06 215.8 1096.26 214.8C1094.46 212.8 1092.66 211.4 1090.86 210.6C1089.06 209.8 1086.86 209.4 1084.26 209.4C1078.86 209.4 1074.36 211.5 1070.76 215.7C1067.36 220.1 1065.66 227.2 1065.66 237C1065.66 246.6 1067.36 254 1070.76 259.2C1074.16 264.4 1078.86 267 1084.86 267C1087.06 267 1089.36 266.6 1091.76 265.8C1094.36 265.2 1096.46 264.2 1098.06 262.8V246.3H1085.46V239.4H1105.26V266.7C1098.66 271.5 1091.86 273.9 1084.86 273.9ZM1154 177V-1.00136e-05H1163V177H1154ZM1190 177V-1.00136e-05H1217V177H1190ZM1226 177V-1.00136e-05H1235V177H1226ZM1244 177V-1.00136e-05H1271V177H1244ZM1280 177V-1.00136e-05H1289V177H1280ZM1298.14 177V-1.00136e-05H1307.14V177H1298.14ZM1316.14 177V-1.00136e-05H1343.14V177H1316.14ZM1352.14 177V-1.00136e-05H1379.14V177H1352.14ZM1406.14 177V-1.00136e-05H1415.14V177H1406.14ZM1424.14 177V-1.00136e-05H1433.14V177H1424.14ZM1350.94 203.1H1390.84V210H1358.74V231.9H1384.84V238.5H1358.74V272.7H1350.94V203.1ZM1442.28 177V-1.00136e-05H1469.28V177H1442.28ZM1478.28 177V-1.00136e-05H1487.28V177H1478.28ZM1496.28 177V-1.00136e-05H1505.28V177H1496.28ZM1532.28 177V-1.00136e-05H1541.28V177H1532.28ZM1550.28 177V-1.00136e-05H1577.28V177H1550.28ZM1525.38 252.3H1502.88L1495.98 272.7H1488.18L1513.68 201.9H1514.58L1540.38 272.7H1532.28L1525.38 252.3ZM1523.28 246.3L1514.28 219.9L1504.98 246.3H1523.28ZM1586.42 177V-1.00136e-05H1613.42V177H1586.42ZM1622.42 177V-1.00136e-05H1649.42V177H1622.42ZM1658.42 177V-1.00136e-05H1667.42V177H1658.42ZM1694.42 177V-1.00136e-05H1703.42V177H1694.42ZM1712.42 177V-1.00136e-05H1721.42V177H1712.42ZM1662.32 273.9C1657.12 273.9 1652.52 272.6 1648.52 270C1644.32 267.4 1641.02 263.5 1638.62 258.3C1636.22 252.9 1635.02 246.2 1635.02 238.2C1635.02 229.8 1636.32 222.9 1638.92 217.5C1641.52 212.3 1644.82 208.5 1648.82 206.1C1652.82 203.9 1657.12 202.8 1661.72 202.8C1666.72 202.8 1671.02 204 1674.62 206.4C1678.22 208.8 1680.92 212.1 1682.72 216.3L1676.12 219.6L1675.22 219.9L1674.92 219.3V218.4C1674.92 217.6 1674.42 216.5 1673.42 215.1C1671.82 212.9 1670.02 211.3 1668.02 210.3C1666.02 209.3 1663.92 208.8 1661.72 208.8C1655.72 208.8 1651.02 211.4 1647.62 216.6C1644.42 221.6 1642.82 228.7 1642.82 237.9C1642.82 243.5 1643.62 248.6 1645.22 253.2C1647.02 257.6 1649.32 261 1652.12 263.4C1655.12 265.8 1658.42 267 1662.02 267C1664.82 267 1667.42 266.3 1669.82 264.9C1672.42 263.3 1674.52 261.2 1676.12 258.6L1681.82 262.5C1679.42 266.3 1676.72 269.1 1673.72 270.9C1670.52 272.9 1666.72 273.9 1662.32 273.9ZM1730.56 177V-1.00136e-05H1739.56V177H1730.56ZM1748.56 177V-1.00136e-05H1757.56V177H1748.56ZM1766.56 177V-1.00136e-05H1793.56V177H1766.56ZM1802.56 177V-1.00136e-05H1829.56V177H1802.56ZM1856.56 177V-1.00136e-05H1865.56V177H1856.56ZM1797.76 210H1778.26V203.1H1826.26V210H1805.86V272.7H1797.76V210ZM1874.7 177V-1.00136e-05H1901.7V177H1874.7ZM1910.7 177V-1.00136e-05H1919.7V177H1910.7ZM1928.7 177V-1.00136e-05H1955.7V177H1928.7ZM1964.7 177V-1.00136e-05H1973.7V177H1964.7ZM2000.7 177V-1.00136e-05H2009.7V177H2000.7ZM1946.7 273.9C1938.7 273.9 1932.6 270.8 1928.4 264.6C1924 258.4 1921.8 249.6 1921.8 238.2C1921.8 227.2 1924 218.5 1928.4 212.1C1932.8 205.9 1938.9 202.8 1946.7 202.8C1954.5 202.8 1960.6 205.9 1965 212.1C1969.4 218.5 1971.6 227.2 1971.6 238.2C1971.6 249.6 1969.4 258.4 1965 264.6C1960.8 270.8 1954.7 273.9 1946.7 273.9ZM1946.7 267C1952.1 267 1956.2 264.6 1959 259.8C1962 254.8 1963.5 247.6 1963.5 238.2C1963.5 229.4 1962 222.4 1959 217.2C1956 212.2 1951.9 209.7 1946.7 209.7C1941.5 209.7 1937.4 212.2 1934.4 217.2C1931.4 222.4 1929.9 229.4 1929.9 238.2C1929.9 247.6 1931.3 254.8 1934.1 259.8C1937.1 264.6 1941.3 267 1946.7 267ZM2018.84 177V-1.00136e-05H2045.84V177H2018.84ZM2054.84 177V-1.00136e-05H2063.84V177H2054.84ZM2072.84 177V-1.00136e-05H2081.84V177H2072.84ZM2090.84 177V-1.00136e-05H2117.84V177H2090.84ZM2144.84 177V-1.00136e-05H2153.84V177H2144.84ZM2069.24 203.1H2089.64C2097.64 203.1 2103.44 204.9 2107.04 208.5C2110.84 211.9 2112.74 216.8 2112.74 223.2C2112.74 227.2 2111.44 231 2108.84 234.6C2106.24 238.2 2102.84 240.6 2098.64 241.8L2114.84 272.7H2106.14L2090.54 242.1H2077.04V272.7H2069.24V203.1ZM2090.54 235.2C2095.34 235.2 2098.94 234.1 2101.34 231.9C2103.54 229.9 2104.64 227 2104.64 223.2C2104.64 219.4 2103.54 216.3 2101.34 213.9C2098.94 211.7 2095.34 210.6 2090.54 210.6H2077.04V235.2H2090.54ZM2162.98 177V-1.00136e-05H2189.98V177H2162.98ZM2216.98 177V-1.00136e-05H2225.98V177H2216.98ZM2234.98 177V-1.00136e-05H2261.98V177H2234.98ZM2270.98 177V-1.00136e-05H2279.98V177H2270.98ZM2288.98 177V-1.00136e-05H2297.98V177H2288.98ZM2231.68 245.4L2210.08 203.1H2219.08L2236.18 237L2251.48 203.1H2259.88L2240.08 245.4V272.7H2231.68V245.4Z" fill="#FF008A"/>
</svg>
